<svg id="Layer_1" data-name="Layer 1" xmlns="http://www.w3.org/2000/svg" viewBox="0 0 550 290"><defs><style>.cls-1{fill:#252525;}.cls-2{fill:#171717;}.cls-3{fill:#ff4e48;}.cls-4{fill:#ffb514;}.cls-5{fill:#1ed22e;}.cls-6{fill:#0f0f0f;}.cls-7{font-size:12px;}.cls-7,.cls-8{fill:#ccc;}.cls-12,.cls-27,.cls-37,.cls-7,.cls-8{font-family:MyriadPro-Regular, Myriad Pro;}.cls-8{font-size:16px;letter-spacing:-0.07em;}.cls-9{letter-spacing:0em;}.cls-10{letter-spacing:-0.02em;}.cls-11{letter-spacing:0em;}.cls-12,.cls-27,.cls-37{font-size:13px;}.cls-12,.cls-27{fill:#ff5ffc;}.cls-12{opacity:0.99;}.cls-13,.cls-26,.cls-62{letter-spacing:-0.01em;}.cls-14,.cls-15,.cls-16,.cls-17,.cls-18,.cls-19,.cls-28,.cls-32,.cls-33,.cls-37,.cls-38,.cls-39,.cls-40,.cls-41,.cls-47,.cls-48,.cls-49,.cls-50,.cls-56{fill:#fff;}.cls-15,.cls-60{letter-spacing:0em;}.cls-16{letter-spacing:-0.01em;}.cls-17,.cls-24{letter-spacing:0em;}.cls-18,.cls-25{letter-spacing:0em;}.cls-19{letter-spacing:-0.01em;}.cls-20,.cls-21,.cls-22,.cls-23,.cls-24,.cls-25,.cls-26,.cls-29,.cls-30,.cls-42,.cls-43,.cls-44,.cls-45,.cls-46,.cls-51,.cls-52,.cls-53,.cls-54,.cls-55{fill:lime;}.cls-21{letter-spacing:-0.01em;}.cls-22,.cls-40,.cls-67{letter-spacing:0em;}.cls-23,.cls-32,.cls-63,.cls-68{letter-spacing:-0.01em;}.cls-28,.cls-46,.cls-71{letter-spacing:0.01em;}.cls-29{letter-spacing:0em;}.cls-30{letter-spacing:0.02em;}.cls-31{letter-spacing:2.56em;}.cls-33,.cls-57{letter-spacing:-0.08em;}.cls-34,.cls-35,.cls-36{fill:#f5ff1f;}.cls-35{letter-spacing:-0.02em;}.cls-36,.cls-65{letter-spacing:-0.09em;}.cls-38,.cls-53{letter-spacing:0em;}.cls-39{letter-spacing:0em;}.cls-41{letter-spacing:-0.01em;}.cls-42,.cls-47{letter-spacing:0em;}.cls-43{letter-spacing:-0.03em;}.cls-44{letter-spacing:-0.05em;}.cls-45{letter-spacing:0em;}.cls-48{letter-spacing:-0.01em;}.cls-49{letter-spacing:0.01em;}.cls-50{letter-spacing:-0.01em;}.cls-51{letter-spacing:-0.03em;}.cls-52{letter-spacing:-0.04em;}.cls-54{letter-spacing:0.01em;}.cls-55{letter-spacing:0em;}.cls-56{letter-spacing:0em;}.cls-58,.cls-59,.cls-60,.cls-61,.cls-62,.cls-63,.cls-64,.cls-65{fill:#fcee21;}.cls-58{letter-spacing:0.03em;}.cls-59{letter-spacing:-0.02em;}.cls-64{letter-spacing:-0.02em;}.cls-66{letter-spacing:-0.07em;}.cls-69{letter-spacing:0em;}.cls-70{letter-spacing:-0.05em;}</style></defs><title>code</title><rect class="cls-1" width="550" height="290"/><rect class="cls-2" y="47" width="550" height="243"/><rect class="cls-2" x="97.46" y="11.46" width="138.54" height="71.54" rx="4.5"/><circle class="cls-3" cx="26.5" cy="24.5" r="6.5"/><circle class="cls-4" cx="48.5" cy="24.5" r="6.5"/><circle class="cls-5" cx="70.5" cy="24.5" r="6.5"/><rect class="cls-6" y="47" width="48" height="243"/><text class="cls-7" transform="translate(20.23 66.38)">1</text><text class="cls-7" transform="translate(19.98 83.46) scale(0.86 1)">2</text><text class="cls-7" transform="translate(19.89 100.46) scale(0.86 1)">3</text><text class="cls-7" transform="translate(19.89 116.46) scale(0.86 1)">4</text><text class="cls-7" transform="translate(19.89 132.2) scale(0.86 1)">5</text><text class="cls-7" transform="translate(18.89 149.2) scale(0.86 1)">6</text><text class="cls-7" transform="translate(18.15 166.79)">7</text><text class="cls-7" transform="translate(18.9 181.87) scale(0.86 1)">8</text><text class="cls-7" transform="translate(18.81 196.87) scale(0.86 1)">9</text><text class="cls-7" transform="translate(15.81 212.87) scale(0.86 1)">10</text><text class="cls-7" transform="translate(15.81 228.61) scale(0.86 1)">11</text><text class="cls-7" transform="translate(15.81 243.61) scale(0.86 1)">12</text><text class="cls-8" transform="translate(136.32 33.7)">T<tspan class="cls-9" x="6.82" y="0">od</tspan><tspan class="cls-10" x="24.62" y="0">o</tspan><tspan class="cls-11" x="33.02" y="0">.jsx</tspan></text><text class="cls-12" transform="translate(58.4 66.94)"><tspan class="cls-13">c</tspan><tspan x="5.75" y="0">onst </tspan><tspan class="cls-14" x="32.3" y="0">[cu</tspan><tspan class="cls-15" x="48.98" y="0">r</tspan><tspan class="cls-16" x="53.29" y="0">r</tspan><tspan class="cls-17" x="57.41" y="0">e</tspan><tspan class="cls-18" x="63.92" y="0">n</tspan><tspan class="cls-17" x="71.08" y="0">t</tspan><tspan class="cls-19" x="75.39" y="0">U</tspan><tspan class="cls-14" x="83.72" y="0" xml:space="preserve">ser]  = </tspan><tspan class="cls-20" x="119.34" y="0">use</tspan><tspan class="cls-21" x="138.16" y="0">C</tspan><tspan class="cls-20" x="145.55" y="0">u</tspan><tspan class="cls-22" x="152.71" y="0">r</tspan><tspan class="cls-23" x="157.01" y="0">r</tspan><tspan class="cls-24" x="161.13" y="0">e</tspan><tspan class="cls-25" x="167.65" y="0">n</tspan><tspan class="cls-24" x="174.81" y="0">t</tspan><tspan class="cls-26" x="179.11" y="0">U</tspan><tspan class="cls-20" x="187.44" y="0">ser()</tspan></text><text class="cls-27" transform="translate(58.69 83.89)"><tspan class="cls-13">c</tspan><tspan x="5.75" y="0">onst </tspan><tspan class="cls-14" x="32.3" y="0">[p</tspan><tspan class="cls-16" x="43.39" y="0">r</tspan><tspan class="cls-17" x="47.51" y="0">oje</tspan><tspan class="cls-28" x="64.32" y="0">c</tspan><tspan class="cls-14" x="70.32" y="0" xml:space="preserve">t]  = </tspan><tspan class="cls-20" x="94.33" y="0">use</tspan><tspan class="cls-29" x="113.15" y="0">Q</tspan><tspan class="cls-20" x="122.15" y="0">ue</tspan><tspan class="cls-30" x="135.82" y="0">r</tspan><tspan class="cls-20" x="140.4" y="0">y ( {</tspan></text><text class="cls-27" transform="translate(58.27 99.89)"><tspan class="cls-31">	</tspan><tspan class="cls-14" x="36" y="0">p</tspan><tspan class="cls-32" x="43.4" y="0">r</tspan><tspan class="cls-14" x="47.52" y="0">oje</tspan><tspan class="cls-28" x="64.33" y="0">c</tspan><tspan class="cls-14" x="70.32" y="0">t: { name :</tspan><tspan class="cls-33" x="122.8" y="0"> </tspan><tspan class="cls-34" x="124.48" y="0">‘Build the thin</tspan><tspan class="cls-35" x="200.13" y="0">g</tspan><tspan class="cls-36" x="207.12" y="0">’</tspan><tspan class="cls-14" x="208.69" y="0" xml:space="preserve"> }</tspan></text><text class="cls-37" transform="translate(57.14 116.89)"><tspan xml:space="preserve"> } )</tspan></text><text/><text class="cls-27" transform="translate(59.14 131.89)"><tspan class="cls-13">c</tspan><tspan x="5.75" y="0">onst </tspan><tspan class="cls-14" x="32.3" y="0">[ t</tspan><tspan class="cls-38" x="43.06" y="0">r</tspan><tspan class="cls-14" x="47.24" y="0">ansa</tspan><tspan class="cls-28" x="72.14" y="0">c</tspan><tspan class="cls-39" x="78.13" y="0">t</tspan><tspan class="cls-14" x="82.39" y="0">, e</tspan><tspan class="cls-40" x="94.35" y="0">r</tspan><tspan class="cls-32" x="98.66" y="0">r</tspan><tspan class="cls-17" x="102.78" y="0">or</tspan><tspan class="cls-41" x="114.16" y="0">s</tspan><tspan class="cls-14" x="119.17" y="0">, syncing ]</tspan><tspan x="172.9" y="0" xml:space="preserve"> = </tspan><tspan class="cls-42" x="186.16" y="0">us</tspan><tspan class="cls-43" x="198.47" y="0">e</tspan><tspan class="cls-44" x="204.55" y="0">T</tspan><tspan class="cls-45" x="210.43" y="0">r</tspan><tspan class="cls-42" x="214.61" y="0">ansa</tspan><tspan class="cls-46" x="239.51" y="0">c</tspan><tspan class="cls-20" x="245.5" y="0">t ()</tspan></text><text/><text class="cls-27" transform="translate(59.25 149.52)"><tspan class="cls-13">c</tspan><tspan x="5.75" y="0">onst </tspan><tspan class="cls-14" x="32.3" y="0">[ i</tspan><tspan class="cls-32" x="41.79" y="0">d</tspan><tspan class="cls-47" x="49" y="0">, db</tspan><tspan class="cls-48" x="69.17" y="0">A</tspan><tspan class="cls-49" x="77.04" y="0">f</tspan><tspan class="cls-19" x="80.98" y="0">t</tspan><tspan class="cls-14" x="85.2" y="0">er , db</tspan><tspan class="cls-40" x="118.9" y="0">B</tspan><tspan class="cls-14" x="125.99" y="0">e</tspan><tspan class="cls-50" x="132.51" y="0">f</tspan><tspan class="cls-14" x="136.13" y="0">o</tspan><tspan class="cls-32" x="143.27" y="0">r</tspan><tspan class="cls-14" x="147.39" y="0">e ]</tspan><tspan x="160.35" y="0" xml:space="preserve"> = </tspan><tspan class="cls-20" x="173.61" y="0">us</tspan><tspan class="cls-51" x="185.92" y="0">e</tspan><tspan class="cls-52" x="192.01" y="0">T</tspan><tspan class="cls-53" x="197.88" y="0">r</tspan><tspan class="cls-20" x="202.07" y="0">ansa</tspan><tspan class="cls-54" x="226.96" y="0">c</tspan><tspan class="cls-55" x="232.96" y="0">t </tspan><tspan class="cls-56" x="240.02" y="0">( [ {</tspan><tspan class="cls-14"><tspan class="cls-31" x="0" y="15.6">	</tspan><tspan class="cls-13" x="36" y="15.6">t</tspan><tspan x="40.22" y="15.6" xml:space="preserve">odo :  {</tspan><tspan class="cls-31" x="0" y="31.2" xml:space="preserve">		</tspan><tspan x="72" y="31.2">title : </tspan><tspan class="cls-57" x="101.43" y="31.2"> </tspan><tspan class="cls-58" x="103.11" y="31.2">‘</tspan><tspan class="cls-59" x="106.16" y="31.2">W</tspan><tspan class="cls-60" x="116.95" y="31.2">r</tspan><tspan class="cls-61" x="121.26" y="31.2">i</tspan><tspan class="cls-62" x="124.3" y="31.2">t</tspan><tspan class="cls-61" x="128.52" y="31.2">e mo</tspan><tspan class="cls-63" x="155.77" y="31.2">r</tspan><tspan class="cls-61" x="159.89" y="31.2">e </tspan><tspan class="cls-62" x="169.16" y="31.2">c</tspan><tspan class="cls-61" x="174.9" y="31.2">od</tspan><tspan class="cls-64" x="189.37" y="31.2">e</tspan><tspan class="cls-65" x="195.56" y="31.2">’</tspan><tspan class="cls-61" x="197.13" y="31.2"> </tspan><tspan x="199.89" y="31.2">, </tspan><tspan class="cls-31" x="0" y="46.8" xml:space="preserve">		</tspan><tspan x="72" y="46.8">assi</tspan><tspan class="cls-13" x="91.6" y="46.8">g</tspan><tspan x="98.79" y="46.8">ned</tspan><tspan class="cls-66" x="119.85" y="46.8">T</tspan><tspan x="125.39" y="46.8">o : cu</tspan><tspan class="cls-67" x="153.72" y="46.8">r</tspan><tspan class="cls-68" x="158.02" y="46.8">r</tspan><tspan x="162.14" y="46.8">e</tspan><tspan class="cls-69" x="168.65" y="46.8">n</tspan><tspan x="175.82" y="46.8">t</tspan><tspan class="cls-13" x="180.12" y="46.8">U</tspan><tspan x="188.45" y="46.8">se</tspan><tspan class="cls-70" x="200.11" y="46.8">r</tspan><tspan x="203.67" y="46.8">, </tspan><tspan class="cls-31" x="0" y="62.4" xml:space="preserve">		</tspan><tspan x="72" y="62.4">p</tspan><tspan class="cls-68" x="79.4" y="62.4">r</tspan><tspan x="83.52" y="62.4">oje</tspan><tspan class="cls-71" x="100.33" y="62.4">c</tspan><tspan x="106.32" y="62.4">t</tspan><tspan class="cls-31" x="0" y="78">	</tspan><tspan x="36" y="78">}</tspan><tspan x="0" y="93.6">} ] )</tspan></tspan></text></svg>